<svg width="24" height="24" viewBox="0 0 24 24" fill="none" xmlns="http://www.w3.org/2000/svg">
<path d="M14.5 2.75C11.639 2.75 9.25 5.139 9.25 8V9.75H6.5C6.4337 9.75 6.37011 9.77634 6.32322 9.82322C6.27634 9.87011 6.25 9.9337 6.25 10V14C6.25 14.138 6.362 14.25 6.5 14.25H9.25V21C9.25 21.138 9.362 21.25 9.5 21.25H13.5C13.5663 21.25 13.6299 21.2237 13.6768 21.1768C13.7237 21.1299 13.75 21.0663 13.75 21V14.25H16.5C16.5557 14.2498 16.6098 14.2311 16.6537 14.1966C16.6975 14.1622 16.7286 14.1141 16.742 14.06L17.742 10.06C17.7511 10.0232 17.7517 9.98487 17.7438 9.94783C17.7359 9.91078 17.7197 9.87602 17.6964 9.84616C17.6731 9.8163 17.6433 9.79213 17.6093 9.77547C17.5752 9.75882 17.5379 9.7501 17.5 9.75H13.75V8C13.7526 7.80189 13.8324 7.61263 13.9725 7.47253C14.1126 7.33244 14.3019 7.25259 14.5 7.25H17.5C17.5663 7.25 17.6299 7.22366 17.6768 7.17678C17.7237 7.12989 17.75 7.0663 17.75 7V3C17.75 2.9337 17.7237 2.87011 17.6768 2.82322C17.6299 2.77634 17.5663 2.75 17.5 2.75H14.5Z" fill="#4D4D4E"/>
</svg>
