<svg width="32" height="32" viewBox="0 0 32 32" fill="none" xmlns="http://www.w3.org/2000/svg">
<path d="M11.0898 1.10162C8.81714 5.04725 10.6797 9.38006 14.3144 11.5958C18.898 14.3901 19.6425 22.9917 26.6544 22.8477C27.8274 25.1604 28.6816 27.4995 29.2794 29.963L30.414 29.6876C29.9523 27.7848 29.3402 25.9479 28.5546 24.1426C29.7727 22.1339 30.3352 20.1152 30.8007 18.0957L29.8437 19.1661C29.9195 18.3232 29.8985 17.4855 29.8007 16.6036L28.9491 18.2873C29.1004 16.9993 29.1398 15.7885 29.1913 14.5685L27.9707 16.6916C27.791 15.6271 27.5596 14.6245 27.334 13.6134L26.8183 15.549C23.2098 7.37506 13.1668 6.34237 11.0898 1.10162ZM2.1112 6.62506C-3.09923 18.3261 11.5681 28.0459 20.3887 26.8419C22.2103 27.8866 23.8248 29.0897 25.3203 30.4942L26.119 29.6426C24.9363 28.532 23.6757 27.5379 22.3065 26.6466C22.2084 24.8357 21.7088 23.2789 21.1465 21.7619L20.7578 24.4396C20.1195 22.7227 19.3138 21.4163 18.5195 20.0823L18.7207 23.3302C18.1559 21.7844 17.334 20.5171 16.4687 19.2971L16.7871 21.9827C15.7261 20.4894 14.6087 19.4368 13.4961 18.3538L14.2851 20.7034C9.00652 16.4984 4.90952 12.2841 2.1112 6.62506Z" fill="#4D4D4E"/>
</svg>
