<svg width="32" height="32" viewBox="0 0 32 32" fill="none" xmlns="http://www.w3.org/2000/svg">
<path d="M21.3334 13.3333C21.3334 10.3867 18.9467 8 16.0001 8C13.0534 8 10.6667 10.3867 10.6667 13.3333C10.6667 16.28 13.0534 18.6667 16.0001 18.6667C18.9467 18.6667 21.3334 16.28 21.3334 13.3333ZM13.3334 13.3333C13.3334 11.8667 14.5334 10.6667 16.0001 10.6667C17.4667 10.6667 18.6667 11.8667 18.6667 13.3333C18.6667 14.8 17.4667 16 16.0001 16C14.5334 16 13.3334 14.8 13.3334 13.3333Z" fill="#4D4D4E"/>
<path d="M15.2267 29.081C15.4534 29.241 15.7334 29.3343 16 29.3343C16.2667 29.3343 16.5467 29.2543 16.7734 29.081C17.1734 28.7876 26.7067 21.921 26.6667 13.321C26.6667 7.44096 21.88 2.6543 16 2.6543C10.12 2.6543 5.33338 7.44096 5.33338 13.321C5.29338 21.9076 14.8267 28.7876 15.2267 29.081ZM16 5.3343C20.4134 5.3343 24 8.92096 24 13.3343C24.0267 19.2543 18.1467 24.5743 16 26.321C13.8534 24.5743 7.97338 19.2676 8.00004 13.3343C8.00004 8.92096 11.5867 5.3343 16 5.3343Z" fill="#4D4D4E"/>
</svg>
