<svg width="244" height="124" viewBox="0 0 244 124" fill="none" xmlns="http://www.w3.org/2000/svg">
<path d="M85.3205 72.533L81.0474 70.3965L84.6458 72.9828L90.3808 76.5813L94.429 79.0552C94.429 79.0552 97.4754 80.9918 99.6017 81.8664C101.593 82.6857 102.919 83.1068 104.999 83.6656C106.789 84.1465 107.663 84.3028 109.497 84.5653C111.238 84.8144 112.018 84.8238 113.77 84.6777C115.12 84.5653 116.048 84.3748 117.144 83.6656C117.72 83.2931 118.493 82.5411 118.493 82.5411C118.493 82.5411 115.129 82.4153 112.983 82.2038C110.999 82.0082 109.881 81.9043 107.923 81.5291C105.831 81.1282 104.675 80.8028 102.638 80.1797C100.313 79.4686 99.0421 78.9601 96.7904 78.0431C94.2424 77.0054 92.855 76.3226 90.3808 75.1194C88.3849 74.1489 85.3205 72.533 85.3205 72.533Z" fill="white" stroke="white" stroke-width="0.224901"/>
<path d="M101.738 71.6307C99.9568 70.7976 97.24 69.4941 97.24 69.4941C97.24 69.4941 99.8747 71.8322 101.738 73.0926C103.498 74.2827 104.505 74.9603 106.348 76.0163C108.414 77.1995 109.61 77.7781 111.746 78.8275C113.92 79.8954 115.192 80.3983 117.481 81.189C119.979 82.0515 121.434 82.3702 124.003 82.9882C126.055 83.4817 127.196 83.8423 129.288 84.1127C132.598 84.5405 134.535 84.6166 137.835 84.1127C140.077 83.7702 141.366 83.5303 143.457 82.6509C145.179 81.9267 146.229 81.5394 147.618 80.2894C148.358 79.6233 149.305 78.3777 149.305 78.3777L147.955 78.1528C147.955 78.1528 144.546 79.8386 142.22 80.5143C140.202 81.1006 139.025 81.3105 136.935 81.5264C134.445 81.7834 133.017 81.7686 130.525 81.5264C128.348 81.3146 127.152 80.9839 125.015 80.5143C122.487 79.9588 121.062 79.6424 118.606 78.8275C116.547 78.1446 115.556 77.7307 113.545 76.9159C110.937 75.8588 109.349 75.1814 106.798 73.9922C104.84 73.0791 103.695 72.546 101.738 71.6307Z" fill="white" stroke="white" stroke-width="0.224901"/>
<path d="M172.02 72.4189C173.504 71.5787 175.618 69.945 175.618 69.945H178.879C178.879 69.945 177.673 71.5451 176.743 72.4189C175.526 73.5616 174.691 74.0382 173.257 74.8928C170.993 76.242 169.598 76.8402 167.072 77.5916C164.512 78.3533 162.985 78.4758 160.325 78.7161C157.132 79.0046 155.307 79.0229 152.116 78.7161C150.348 78.5462 147.618 78.0414 147.618 78.0414C147.618 78.0414 143.341 77.2719 140.646 76.5796C137.888 75.8709 136.399 75.2713 133.674 74.443C131.348 73.7359 130.033 73.3751 127.714 72.6438C124.668 71.683 122.946 71.1792 119.955 70.0574C115.922 68.5447 109.835 65.6719 109.835 65.6719C109.835 65.6719 116.21 67.5179 120.293 68.708C123.148 69.5403 124.73 70.0711 127.602 70.8446C130.05 71.5039 131.432 71.8384 133.899 72.4189C136.918 73.1291 138.616 73.5037 141.658 74.1057C145.723 74.9101 147.983 75.5973 152.116 75.9049C155.313 76.1428 157.138 76.2486 160.325 75.9049C162.997 75.6168 164.517 75.3888 167.072 74.5555C169.073 73.9027 170.188 73.4559 172.02 72.4189Z" fill="white" stroke="white" stroke-width="0.224901"/>
<path d="M161.787 66.7962C159.14 66.1405 155.04 64.997 155.04 64.997L156.726 64.3223L169.208 66.1215C169.208 66.1215 171.528 67.1084 173.032 67.6958C175.335 68.5951 178.992 69.8323 178.992 69.8323H175.506C175.506 69.8323 171.665 69.0239 169.208 68.4829C166.306 67.8437 164.672 67.5109 161.787 66.7962Z" fill="white" stroke="white" stroke-width="0.224901"/>
<path d="M203.506 56.4522C204.518 55.6437 205.755 54.2032 205.755 54.2032V53.9783L209.016 52.6289C209.016 52.6289 207.745 55.7788 206.317 57.3518C205.753 57.9731 205.487 58.3748 204.855 58.9261C203.723 59.9133 202.958 60.3445 201.707 61.1751C199.546 62.6087 198.148 63.123 195.747 64.0989C193.057 65.1915 191.497 65.722 188.662 66.3479C187.746 66.5503 187.232 66.6765 186.301 66.7977C184.254 67.0641 183.08 67.1531 181.016 67.135C175.524 67.087 172.434 66.7847 166.959 66.3479C163.392 66.0632 161.406 65.7499 157.851 65.3358C154.247 64.9161 152.225 64.696 148.63 64.2113C145.331 63.7665 143.486 63.4825 140.196 62.9744C136.943 62.4719 135.113 62.2201 131.875 61.625C128.656 61.0333 126.862 60.642 123.666 59.9382C118.101 58.7128 109.497 56.4522 109.497 56.4522C109.497 56.4522 118.128 57.8505 123.666 58.7012C126.87 59.1935 128.672 59.4373 131.875 59.9382C135.127 60.4468 136.93 60.8706 140.196 61.2876C143.477 61.7066 145.343 62.0415 148.63 62.4121C152.24 62.8191 154.239 62.9144 157.851 63.3117C161.4 63.7021 163.394 63.9124 166.959 64.0989L167.065 64.1044C172.481 64.3876 175.562 64.5487 181.016 64.5487C184.164 64.5487 185.72 64.4082 188.662 63.7615C191.213 63.2008 192.659 62.7384 195.072 61.7374C196.94 60.9621 198.289 60.3648 199.907 59.151C201.257 58.139 202.145 57.5393 203.506 56.4522Z" fill="white" stroke="white" stroke-width="0.224901"/>
<path d="M68.9197 89.0789C68.9448 89.0789 68.9573 89.1166 68.9573 89.1918C68.9573 89.2671 68.9448 89.3047 68.9197 89.3047C68.6563 89.3047 68.3616 89.2984 68.0355 89.2859C67.7219 89.2733 67.3958 89.2671 67.0572 89.2671C66.7436 89.2671 66.4364 89.2733 66.1354 89.2859C65.8344 89.2984 65.5647 89.3047 65.3264 89.3047C65.3013 89.3047 65.2888 89.2671 65.2888 89.1918C65.2888 89.1166 65.3013 89.0789 65.3264 89.0789C65.6776 89.0789 65.9033 88.9974 66.0037 88.8344C66.104 88.6713 66.1542 88.3201 66.1542 87.7808V83.5668C66.1542 83.1905 66.1479 82.9271 66.1354 82.7766C66.1228 82.6136 66.0727 82.5195 65.9849 82.4944C65.9096 82.4568 65.7779 82.438 65.5898 82.438H63.4263C63.2382 82.438 63.1002 82.4568 63.0124 82.4944C62.9372 82.532 62.887 82.6324 62.8619 82.7954C62.8494 82.9459 62.8431 83.2156 62.8431 83.6044V87.7808C62.8431 88.3201 62.887 88.6713 62.9748 88.8344C63.0751 88.9974 63.2946 89.0789 63.6333 89.0789C63.6709 89.0789 63.6897 89.1166 63.6897 89.1918C63.6897 89.2671 63.6709 89.3047 63.6333 89.3047C63.4075 89.3047 63.1504 89.2984 62.8619 89.2859C62.5735 89.2733 62.285 89.2671 61.9965 89.2671C61.6454 89.2671 61.3005 89.2733 60.9618 89.2859C60.6357 89.2984 60.3347 89.3047 60.0588 89.3047C60.0212 89.3047 60.0024 89.2671 60.0024 89.1918C60.0024 89.1166 60.0212 89.0789 60.0588 89.0789C60.4978 89.0789 60.78 88.9974 60.9054 88.8344C61.0308 88.6713 61.0935 88.3201 61.0935 87.7808V83.5668C61.0935 83.0149 61.0308 82.6637 60.9054 82.5132C60.78 82.3502 60.504 82.2687 60.0776 82.2687C60.04 82.2687 60.0212 82.231 60.0212 82.1558C60.0212 82.0805 60.04 82.0429 60.0776 82.0429H68.9197C68.9448 82.0429 68.9573 82.0805 68.9573 82.1558C68.9573 82.231 68.9448 82.2687 68.9197 82.2687C68.4932 82.2687 68.2173 82.3565 68.0919 82.532C67.9665 82.7076 67.9038 83.0651 67.9038 83.6044V87.7808C67.9038 88.3201 67.9665 88.6713 68.0919 88.8344C68.2173 88.9974 68.4932 89.0789 68.9197 89.0789ZM73.9833 89.5493C73.1931 89.5493 72.5096 89.3674 71.9327 89.0037C71.3557 88.64 70.9105 88.1571 70.597 87.5551C70.2834 86.9405 70.1266 86.2821 70.1266 85.5797C70.1266 84.9276 70.2521 84.3632 70.5029 83.8866C70.7537 83.41 71.0861 83.0212 71.5 82.7202C71.9139 82.4066 72.3654 82.1746 72.8545 82.0241C73.3436 81.8736 73.8265 81.7983 74.3031 81.7983C75.1058 81.7983 75.7893 81.9865 76.3537 82.3627C76.9306 82.739 77.3696 83.2219 77.6706 83.8113C77.9716 84.4008 78.1221 85.0279 78.1221 85.6926C78.1221 86.4577 77.9277 87.1349 77.5389 87.7244C77.1627 88.3013 76.661 88.7528 76.0339 89.0789C75.4068 89.3925 74.7233 89.5493 73.9833 89.5493ZM74.5477 89.1542C75.0493 89.1542 75.4256 88.9096 75.6764 88.4205C75.9273 87.9313 76.0527 87.2415 76.0527 86.3511C76.0527 85.4355 75.9336 84.6704 75.6953 84.0559C75.4695 83.4413 75.1748 82.9773 74.811 82.6637C74.4473 82.3502 74.0648 82.1934 73.6635 82.1934C73.1743 82.1934 72.7981 82.4129 72.5347 82.8519C72.2839 83.2908 72.1584 83.9681 72.1584 84.8837C72.1584 85.7365 72.265 86.489 72.4783 87.1412C72.6915 87.7808 72.9799 88.2762 73.3436 88.6274C73.7074 88.9786 74.1087 89.1542 74.5477 89.1542ZM79.4706 89.2671L82.7253 81.7607C82.7503 81.7105 82.788 81.6855 82.8381 81.6855C82.9008 81.6855 82.9385 81.7105 82.951 81.7607L86.2621 89.2671H84.2115L82.0104 84.1311L82.8193 82.6825L79.9786 89.2671H79.4706ZM78.6805 91.8444C78.6805 91.2675 78.6617 90.8285 78.624 90.5275C78.599 90.2391 78.5676 89.9945 78.53 89.7938C78.5049 89.5932 78.4923 89.3549 78.4923 89.0789C78.4923 88.9786 78.5049 88.9096 78.53 88.872C78.5551 88.8218 78.6115 88.7967 78.6993 88.7967H86.977C87.0773 88.7967 87.14 88.8218 87.1651 88.872C87.1902 88.9096 87.2027 88.9786 87.2027 89.0789C87.2027 89.3047 87.1839 89.5367 87.1463 89.775C87.1212 90.0258 87.0898 90.308 87.0522 90.6216C87.0146 90.9477 86.9958 91.3553 86.9958 91.8444C86.9958 91.8946 86.9582 91.9197 86.8829 91.9197C86.8202 91.9197 86.7888 91.8946 86.7888 91.8444C86.7888 91.3302 86.6948 90.8787 86.5066 90.4899C86.3311 90.1136 86.0614 89.8189 85.6977 89.6057C85.3465 89.3925 84.9075 89.2859 84.3808 89.2859H81.2767C80.7624 89.2859 80.3235 89.3925 79.9598 89.6057C79.6086 89.8189 79.3452 90.1136 79.1696 90.4899C78.994 90.8787 78.9062 91.3302 78.9062 91.8444C78.9062 91.8946 78.8686 91.9197 78.7934 91.9197C78.7181 91.9197 78.6805 91.8946 78.6805 91.8444ZM70.3607 116.305H60.3824C60.3372 116.305 60.3147 116.26 60.3147 116.169C60.3147 116.079 60.3372 116.034 60.3824 116.034C60.8489 116.034 61.1951 115.996 61.4209 115.921C61.6466 115.846 61.7971 115.695 61.8724 115.469C61.9476 115.244 61.9852 114.913 61.9852 114.476V104.024C61.9852 103.587 61.9476 103.264 61.8724 103.053C61.7971 102.827 61.6466 102.677 61.4209 102.601C61.1951 102.511 60.8489 102.466 60.3824 102.466C60.3372 102.466 60.3147 102.421 60.3147 102.33C60.3147 102.24 60.3372 102.195 60.3824 102.195H69.9544C70.1049 102.195 70.1801 102.263 70.1801 102.398L70.2253 105.401C70.2253 105.431 70.1877 105.453 70.1124 105.468C70.0372 105.484 69.9845 105.468 69.9544 105.423C69.7136 104.535 69.3072 103.888 68.7353 103.482C68.1634 103.06 67.4109 102.85 66.4778 102.85H65.8005C65.4995 102.85 65.2512 102.895 65.0555 102.985C64.8599 103.06 64.7169 103.188 64.6266 103.369C64.5363 103.55 64.4911 103.775 64.4911 104.046V114.386C64.4911 114.672 64.5287 114.913 64.604 115.108C64.6792 115.304 64.7921 115.447 64.9426 115.537C65.0931 115.627 65.2888 115.673 65.5296 115.673H66.2746C67.4485 115.673 68.3891 115.432 69.0965 114.95C69.8039 114.469 70.3231 113.724 70.6542 112.715C70.6693 112.67 70.7144 112.663 70.7897 112.693C70.88 112.708 70.9251 112.73 70.9251 112.76C70.8649 113.197 70.8122 113.716 70.7671 114.318C70.7219 114.905 70.6994 115.454 70.6994 115.966C70.6994 116.192 70.5865 116.305 70.3607 116.305ZM69.0965 111.27C69.0965 110.653 68.8632 110.172 68.3967 109.826C67.9301 109.464 67.2453 109.284 66.3423 109.284H63.2946V108.652H66.3649C67.2529 108.652 67.9226 108.501 68.3741 108.2C68.8407 107.884 69.0739 107.463 69.0739 106.936C69.0739 106.891 69.1116 106.868 69.1868 106.868C69.2771 106.868 69.3223 106.891 69.3223 106.936C69.3223 107.433 69.3147 107.824 69.2997 108.11C69.2997 108.381 69.2997 108.667 69.2997 108.968C69.2997 109.344 69.3072 109.713 69.3223 110.074C69.3524 110.435 69.3674 110.834 69.3674 111.27C69.3674 111.3 69.3223 111.316 69.232 111.316C69.1417 111.316 69.0965 111.3 69.0965 111.27ZM79.5886 107.591C79.694 107.591 79.7542 107.606 79.7692 107.636C79.7843 107.651 79.7918 107.703 79.7918 107.794C79.7768 108.245 79.7542 108.742 79.7241 109.284C79.694 109.81 79.6789 110.224 79.6789 110.525C79.6789 110.555 79.6338 110.571 79.5435 110.571C79.4682 110.571 79.4231 110.555 79.408 110.525C79.107 109.607 78.7308 108.96 78.2793 108.584C77.8278 108.193 77.3612 107.997 76.8796 107.997C76.5184 107.997 76.2776 108.11 76.1572 108.336C76.0368 108.561 75.9766 108.938 75.9766 109.464V114.476C75.9766 115.123 76.0518 115.545 76.2023 115.74C76.3528 115.936 76.6839 116.034 77.1956 116.034C77.2257 116.034 77.2408 116.079 77.2408 116.169C77.2408 116.26 77.2257 116.305 77.1956 116.305C76.8796 116.305 76.5259 116.297 76.1346 116.282C75.7583 116.267 75.367 116.26 74.9607 116.26C74.5393 116.26 74.1254 116.267 73.719 116.282C73.3277 116.297 72.9665 116.305 72.6354 116.305C72.5902 116.305 72.5677 116.26 72.5677 116.169C72.5677 116.079 72.5902 116.034 72.6354 116.034C73.1622 116.034 73.5008 115.936 73.6513 115.74C73.8018 115.545 73.877 115.123 73.877 114.476V109.419C73.877 108.757 73.8018 108.336 73.6513 108.155C73.5008 107.959 73.1697 107.861 72.658 107.861C72.6128 107.861 72.5902 107.816 72.5902 107.726C72.5902 107.636 72.6128 107.591 72.658 107.591H79.5886ZM85.7071 116.598C84.759 116.598 83.9387 116.38 83.2464 115.943C82.5541 115.507 82.0198 114.928 81.6435 114.205C81.2673 113.468 81.0792 112.678 81.0792 111.835C81.0792 111.052 81.2297 110.375 81.5307 109.803C81.8317 109.231 82.2305 108.764 82.7272 108.403C83.2238 108.027 83.7656 107.749 84.3526 107.568C84.9396 107.387 85.519 107.297 86.0909 107.297C87.0541 107.297 87.8744 107.523 88.5516 107.974C89.2439 108.426 89.7707 109.005 90.1319 109.713C90.4931 110.42 90.6737 111.173 90.6737 111.97C90.6737 112.888 90.4404 113.701 89.9739 114.408C89.5224 115.101 88.9204 115.642 88.1678 116.034C87.4153 116.41 86.5951 116.598 85.7071 116.598ZM86.3844 116.124C86.9864 116.124 87.4379 115.831 87.7389 115.244C88.0399 114.657 88.1904 113.829 88.1904 112.76C88.1904 111.662 88.0474 110.744 87.7615 110.006C87.4906 109.269 87.1369 108.712 86.7004 108.336C86.264 107.959 85.8049 107.771 85.3233 107.771C84.7364 107.771 84.2849 108.035 83.9688 108.561C83.6678 109.088 83.5173 109.901 83.5173 110.999C83.5173 112.023 83.6452 112.926 83.9011 113.709C84.1569 114.476 84.5031 115.071 84.9396 115.492C85.376 115.913 85.8576 116.124 86.3844 116.124ZM97.1446 116.305C97.0994 116.305 97.0769 116.26 97.0769 116.169C97.0769 116.079 97.0994 116.034 97.1446 116.034C97.6714 116.034 98.01 115.936 98.1605 115.74C98.311 115.545 98.3862 115.123 98.3862 114.476V109.419C98.3862 108.757 98.311 108.336 98.1605 108.155C98.025 107.959 97.6939 107.861 97.1672 107.861C97.1371 107.861 97.122 107.816 97.122 107.726C97.122 107.636 97.1371 107.591 97.1672 107.591C97.4832 107.591 97.8369 107.598 98.2282 107.613C98.6346 107.628 99.0485 107.636 99.4699 107.636C99.9364 107.636 100.388 107.628 100.824 107.613C101.261 107.598 101.645 107.591 101.976 107.591C102.006 107.591 102.021 107.636 102.021 107.726C102.021 107.816 102.006 107.861 101.976 107.861C101.359 107.861 100.952 107.959 100.757 108.155C100.576 108.336 100.486 108.772 100.486 109.464V114.476C100.486 115.123 100.561 115.545 100.712 115.74C100.862 115.936 101.193 116.034 101.705 116.034C101.75 116.034 101.773 116.079 101.773 116.169C101.773 116.26 101.75 116.305 101.705 116.305C101.389 116.305 101.035 116.297 100.644 116.282C100.268 116.267 99.8762 116.26 99.4699 116.26C99.0485 116.26 98.6346 116.267 98.2282 116.282C97.8369 116.297 97.4757 116.305 97.1446 116.305ZM104.798 116.305C104.707 116.305 104.617 116.29 104.527 116.26C104.436 116.229 104.324 116.154 104.188 116.034C104.068 115.898 103.902 115.688 103.691 115.402C103.496 115.101 103.24 114.679 102.924 114.137C102.563 113.535 102.262 113.084 102.021 112.783C101.795 112.467 101.569 112.256 101.344 112.151C101.133 112.03 100.862 111.97 100.531 111.97C100.275 111.97 99.9891 111.993 99.6731 112.038L99.6505 111.632C99.816 111.617 100.034 111.601 100.305 111.586C100.576 111.571 100.839 111.564 101.095 111.564C101.351 111.549 101.509 111.541 101.569 111.541C102.247 111.541 102.766 111.601 103.127 111.722C103.503 111.827 103.827 112.03 104.098 112.331C104.369 112.632 104.7 113.084 105.091 113.686C105.422 114.183 105.686 114.604 105.881 114.95C106.077 115.296 106.288 115.56 106.513 115.74C106.754 115.921 107.078 116.019 107.484 116.034C107.529 116.034 107.552 116.079 107.552 116.169C107.552 116.26 107.529 116.305 107.484 116.305H104.798ZM101.569 111.993V111.541C101.705 111.541 101.84 111.466 101.976 111.316C102.111 111.165 102.232 110.992 102.337 110.796C102.442 110.601 102.525 110.443 102.585 110.322C102.992 109.494 103.353 108.87 103.669 108.448C104 108.027 104.309 107.741 104.595 107.591C104.88 107.44 105.174 107.365 105.475 107.365C105.942 107.365 106.273 107.47 106.468 107.681C106.679 107.892 106.784 108.155 106.784 108.471C106.784 108.802 106.686 109.081 106.491 109.306C106.31 109.517 106.024 109.622 105.633 109.622C105.422 109.622 105.249 109.592 105.114 109.532C104.993 109.472 104.873 109.412 104.753 109.351C104.647 109.291 104.489 109.261 104.278 109.261C104.128 109.261 103.992 109.291 103.872 109.351C103.752 109.412 103.631 109.532 103.511 109.713C103.39 109.893 103.24 110.157 103.059 110.503C102.819 111.015 102.57 111.391 102.314 111.632C102.074 111.872 101.825 111.993 101.569 111.993ZM107.881 122.513C107.835 122.513 107.813 122.468 107.813 122.377C107.813 122.287 107.835 122.242 107.881 122.242C108.407 122.242 108.746 122.144 108.897 121.949C109.062 121.753 109.145 121.331 109.145 120.684V109.419C109.145 108.757 109.024 108.336 108.784 108.155C108.558 107.959 108.182 107.861 107.655 107.861C107.625 107.861 107.61 107.816 107.61 107.726C107.61 107.636 107.625 107.591 107.655 107.591C107.881 107.591 108.182 107.591 108.558 107.591C108.934 107.591 109.318 107.591 109.709 107.591C110.116 107.591 110.462 107.591 110.748 107.591C110.958 107.591 111.094 107.636 111.154 107.726C111.214 107.801 111.244 107.929 111.244 108.11V120.684C111.244 121.106 111.29 121.429 111.38 121.655C111.485 121.881 111.681 122.031 111.967 122.107C112.253 122.197 112.682 122.242 113.254 122.242C113.299 122.242 113.321 122.287 113.321 122.377C113.321 122.468 113.299 122.513 113.254 122.513C112.832 122.513 112.358 122.505 111.831 122.49C111.305 122.475 110.748 122.468 110.161 122.468C109.739 122.468 109.325 122.475 108.919 122.49C108.528 122.505 108.182 122.513 107.881 122.513ZM113.186 116.598C112.599 116.598 112.095 116.553 111.673 116.463C111.267 116.372 110.778 116.229 110.206 116.034L110.996 114.612C111.327 115.018 111.681 115.357 112.057 115.627C112.448 115.898 112.968 116.034 113.615 116.034C114.322 116.034 114.879 115.725 115.285 115.108C115.692 114.491 115.895 113.505 115.895 112.151C115.895 110.947 115.617 110.051 115.06 109.464C114.503 108.862 113.848 108.561 113.096 108.561C112.539 108.561 112.057 108.704 111.651 108.99C111.244 109.276 110.846 109.637 110.454 110.074L110.228 109.803C110.996 108.915 111.726 108.275 112.418 107.884C113.126 107.493 113.848 107.297 114.586 107.297C115.218 107.297 115.805 107.463 116.346 107.794C116.888 108.11 117.325 108.576 117.656 109.193C118.002 109.81 118.175 110.563 118.175 111.451C118.175 112.414 118.017 113.227 117.701 113.889C117.4 114.551 117.001 115.086 116.504 115.492C116.008 115.883 115.466 116.162 114.879 116.327C114.307 116.508 113.743 116.598 113.186 116.598ZM129.098 116.305C129.053 116.305 129.031 116.26 129.031 116.169C129.031 116.079 129.053 116.034 129.098 116.034C129.625 116.034 129.964 115.936 130.114 115.74C130.265 115.545 130.34 115.123 130.34 114.476V109.419C130.34 108.757 130.265 108.336 130.114 108.155C129.964 107.959 129.633 107.861 129.121 107.861C129.076 107.861 129.053 107.816 129.053 107.726C129.053 107.636 129.076 107.591 129.121 107.591C129.437 107.591 129.791 107.598 130.182 107.613C130.588 107.628 131.002 107.636 131.424 107.636C131.83 107.636 132.229 107.628 132.62 107.613C133.011 107.598 133.358 107.591 133.659 107.591C133.689 107.591 133.704 107.636 133.704 107.726C133.704 107.816 133.689 107.861 133.659 107.861C133.147 107.861 132.816 107.967 132.665 108.178C132.515 108.388 132.44 108.817 132.44 109.464V114.476C132.44 115.123 132.515 115.545 132.665 115.74C132.816 115.936 133.147 116.034 133.659 116.034C133.689 116.034 133.704 116.079 133.704 116.169C133.704 116.26 133.689 116.305 133.659 116.305C133.343 116.305 132.989 116.297 132.598 116.282C132.221 116.267 131.83 116.26 131.424 116.26C131.002 116.26 130.588 116.267 130.182 116.282C129.791 116.297 129.43 116.305 129.098 116.305ZM122.935 109.464V114.476C122.935 114.988 123.018 115.372 123.184 115.627C123.364 115.883 123.71 116.011 124.222 116.011C124.839 116.011 125.283 115.846 125.554 115.515C125.84 115.183 125.983 114.672 125.983 113.979C125.983 113.287 125.832 112.723 125.531 112.286C125.23 111.85 124.704 111.632 123.951 111.632C123.695 111.632 123.409 111.669 123.093 111.744C122.792 111.805 122.469 111.918 122.123 112.083L121.987 111.654C122.469 111.443 122.95 111.308 123.432 111.248C123.914 111.173 124.358 111.135 124.764 111.135C127.082 111.135 128.241 111.918 128.241 113.483C128.241 114.356 127.909 115.056 127.247 115.582C126.585 116.094 125.735 116.35 124.696 116.35C124.485 116.35 124.215 116.342 123.883 116.327C123.552 116.312 123.206 116.297 122.845 116.282C122.499 116.267 122.19 116.26 121.919 116.26C121.498 116.26 121.084 116.267 120.678 116.282C120.286 116.297 119.925 116.305 119.594 116.305C119.549 116.305 119.526 116.26 119.526 116.169C119.526 116.079 119.549 116.034 119.594 116.034C120.121 116.034 120.46 115.936 120.61 115.74C120.761 115.545 120.836 115.123 120.836 114.476V109.419C120.836 108.757 120.761 108.336 120.61 108.155C120.46 107.959 120.128 107.861 119.617 107.861C119.572 107.861 119.549 107.816 119.549 107.726C119.549 107.636 119.572 107.591 119.617 107.591C119.933 107.591 120.286 107.598 120.678 107.613C121.084 107.628 121.498 107.636 121.919 107.636C122.371 107.636 122.815 107.628 123.251 107.613C123.688 107.598 124.079 107.591 124.425 107.591C124.455 107.591 124.47 107.636 124.47 107.726C124.47 107.816 124.455 107.861 124.425 107.861C123.778 107.861 123.364 107.967 123.184 108.178C123.018 108.388 122.935 108.817 122.935 109.464ZM134.235 116.305C134.175 116.305 134.145 116.26 134.145 116.169C134.145 116.079 134.175 116.034 134.235 116.034C134.4 116.034 134.573 115.966 134.754 115.831C134.95 115.68 135.168 115.409 135.409 115.018C135.65 114.627 135.928 114.062 136.244 113.325L138.863 107.252C138.893 107.192 138.938 107.162 138.998 107.162C139.058 107.162 139.104 107.192 139.134 107.252L141.933 113.212C142.294 113.979 142.58 114.566 142.791 114.973C143.017 115.379 143.242 115.658 143.468 115.808C143.694 115.959 143.972 116.034 144.304 116.034C144.379 116.034 144.416 116.079 144.416 116.169C144.416 116.26 144.379 116.305 144.304 116.305C143.897 116.305 143.468 116.29 143.017 116.26C142.58 116.229 142.151 116.214 141.73 116.214C141.369 116.214 140.985 116.229 140.579 116.26C140.187 116.29 139.819 116.305 139.472 116.305C139.412 116.305 139.382 116.26 139.382 116.169C139.382 116.079 139.412 116.034 139.472 116.034C140.089 116.034 140.398 115.898 140.398 115.627C140.398 115.357 140.27 114.95 140.014 114.408L137.982 110.096L138.976 108.358L136.763 113.528C136.477 114.205 136.342 114.724 136.357 115.086C136.372 115.447 136.485 115.695 136.696 115.831C136.906 115.966 137.155 116.034 137.441 116.034C137.516 116.034 137.553 116.079 137.553 116.169C137.553 116.26 137.516 116.305 137.441 116.305C137.155 116.305 136.906 116.29 136.696 116.26C136.5 116.229 136.229 116.214 135.883 116.214C135.597 116.214 135.379 116.222 135.228 116.237C135.078 116.252 134.927 116.267 134.777 116.282C134.641 116.297 134.461 116.305 134.235 116.305ZM148.355 109.464V114.476C148.355 114.988 148.438 115.372 148.603 115.627C148.784 115.883 149.13 116.011 149.642 116.011C150.259 116.011 150.703 115.846 150.974 115.515C151.259 115.183 151.402 114.672 151.402 113.979C151.402 113.287 151.252 112.723 150.951 112.286C150.65 111.85 150.123 111.632 149.371 111.632C149.115 111.632 148.829 111.669 148.513 111.744C148.212 111.805 147.888 111.918 147.542 112.083L147.407 111.654C147.888 111.443 148.37 111.308 148.851 111.248C149.333 111.173 149.777 111.135 150.183 111.135C152.501 111.135 153.66 111.918 153.66 113.483C153.66 114.356 153.329 115.056 152.667 115.582C152.004 116.094 151.154 116.35 150.116 116.35C149.905 116.35 149.634 116.342 149.303 116.327C148.972 116.312 148.626 116.297 148.264 116.282C147.918 116.267 147.61 116.26 147.339 116.26C146.917 116.26 146.504 116.267 146.097 116.282C145.706 116.297 145.345 116.305 145.014 116.305C144.968 116.305 144.946 116.26 144.946 116.169C144.946 116.079 144.968 116.034 145.014 116.034C145.54 116.034 145.879 115.936 146.029 115.74C146.18 115.545 146.255 115.123 146.255 114.476V109.419C146.255 108.757 146.18 108.336 146.029 108.155C145.879 107.959 145.548 107.861 145.036 107.861C144.991 107.861 144.968 107.816 144.968 107.726C144.968 107.636 144.991 107.591 145.036 107.591C145.352 107.591 145.706 107.598 146.097 107.613C146.504 107.628 146.917 107.636 147.339 107.636C147.79 107.636 148.234 107.628 148.671 107.613C149.107 107.598 149.499 107.591 149.845 107.591C149.875 107.591 149.89 107.636 149.89 107.726C149.89 107.816 149.875 107.861 149.845 107.861C149.198 107.861 148.784 107.967 148.603 108.178C148.438 108.388 148.355 108.817 148.355 109.464ZM163.155 116.034C163.2 116.034 163.222 116.079 163.222 116.169C163.222 116.26 163.2 116.305 163.155 116.305C162.899 116.305 162.598 116.297 162.252 116.282C161.92 116.267 161.574 116.26 161.213 116.26C160.792 116.26 160.408 116.267 160.062 116.282C159.731 116.297 159.415 116.305 159.114 116.305C159.083 116.305 159.068 116.26 159.068 116.169C159.068 116.079 159.083 116.034 159.114 116.034C159.55 116.034 159.813 115.936 159.904 115.74C160.009 115.545 160.062 115.123 160.062 114.476V112.219L160.852 112.264C160.461 112.264 160.099 112.316 159.768 112.422C159.437 112.527 159.114 112.738 158.798 113.054C158.496 113.355 158.188 113.829 157.872 114.476C157.706 114.837 157.563 115.153 157.443 115.424C157.323 115.695 157.202 115.913 157.082 116.079C156.961 116.229 156.803 116.305 156.608 116.305H153.966C153.936 116.305 153.921 116.26 153.921 116.169C153.921 116.079 153.936 116.034 153.966 116.034C154.343 116.034 154.644 115.921 154.869 115.695C155.11 115.454 155.306 115.176 155.456 114.86C155.607 114.544 155.742 114.265 155.863 114.025C156.209 113.362 156.675 112.903 157.262 112.647C157.849 112.377 158.602 112.241 159.52 112.241L159.678 112.309C158.143 112.309 157.067 112.091 156.45 111.654C155.848 111.203 155.547 110.638 155.547 109.961C155.547 109.404 155.705 108.953 156.021 108.606C156.337 108.245 156.758 107.974 157.285 107.794C157.827 107.613 158.406 107.523 159.023 107.523C159.4 107.523 159.776 107.545 160.152 107.591C160.528 107.621 160.882 107.636 161.213 107.636C161.574 107.636 161.92 107.628 162.252 107.613C162.583 107.598 162.876 107.591 163.132 107.591C163.177 107.591 163.2 107.636 163.2 107.726C163.2 107.816 163.177 107.861 163.132 107.861C162.756 107.861 162.5 107.959 162.364 108.155C162.244 108.336 162.184 108.757 162.184 109.419V114.476C162.184 115.123 162.252 115.545 162.387 115.74C162.522 115.936 162.778 116.034 163.155 116.034ZM157.736 109.464C157.736 110.157 157.894 110.751 158.211 111.248C158.527 111.744 158.993 111.993 159.61 111.993C159.821 111.993 160.054 111.985 160.31 111.97C160.566 111.94 160.769 111.91 160.92 111.88L160.062 112.128V109.464C160.062 108.787 160.002 108.343 159.881 108.132C159.776 107.907 159.527 107.794 159.136 107.794C158.639 107.794 158.278 107.937 158.053 108.223C157.842 108.494 157.736 108.907 157.736 109.464ZM176.375 116.034C176.42 116.034 176.443 116.079 176.443 116.169C176.443 116.26 176.42 116.305 176.375 116.305C176.059 116.305 175.698 116.297 175.292 116.282C174.9 116.267 174.509 116.26 174.118 116.26C173.711 116.26 173.343 116.267 173.011 116.282C172.68 116.297 172.372 116.305 172.086 116.305C172.041 116.305 172.018 116.26 172.018 116.169C172.018 116.079 172.041 116.034 172.086 116.034C172.492 116.034 172.771 115.951 172.921 115.785C173.072 115.62 173.109 115.214 173.034 114.566L172.537 110.367L173.463 109.035L169.964 116.305C169.949 116.365 169.896 116.395 169.806 116.395C169.715 116.395 169.655 116.365 169.625 116.305L166.171 110.435L166.51 108.832L166.103 113.957C166.058 114.664 166.164 115.191 166.419 115.537C166.675 115.868 167.082 116.034 167.638 116.034C167.684 116.034 167.706 116.079 167.706 116.169C167.706 116.26 167.684 116.305 167.638 116.305C167.398 116.305 167.112 116.297 166.781 116.282C166.449 116.267 166.141 116.26 165.855 116.26C165.554 116.26 165.253 116.267 164.952 116.282C164.666 116.297 164.395 116.305 164.139 116.305C164.094 116.305 164.072 116.26 164.072 116.169C164.072 116.079 164.094 116.034 164.139 116.034C164.621 116.034 164.975 115.861 165.2 115.515C165.441 115.168 165.584 114.649 165.629 113.957L166.103 107.523C166.103 107.448 166.209 107.395 166.419 107.365C166.63 107.32 166.766 107.35 166.826 107.455L170.754 114.092L170.257 114.589L173.689 107.455C173.734 107.38 173.847 107.365 174.027 107.41C174.223 107.44 174.321 107.485 174.321 107.545L175.134 114.476C175.194 114.913 175.246 115.244 175.292 115.469C175.352 115.695 175.457 115.846 175.608 115.921C175.773 115.996 176.029 116.034 176.375 116.034ZM178.709 116.485C178.634 116.485 178.559 116.47 178.483 116.44C178.408 116.425 178.37 116.41 178.37 116.395V109.419C178.37 108.757 178.295 108.336 178.145 108.155C178.009 107.959 177.678 107.861 177.151 107.861C177.121 107.861 177.106 107.816 177.106 107.726C177.106 107.636 177.121 107.591 177.151 107.591C177.467 107.591 177.776 107.598 178.077 107.613C178.393 107.628 178.829 107.636 179.386 107.636C180.079 107.636 180.59 107.628 180.921 107.613C181.253 107.598 181.516 107.591 181.712 107.591C181.757 107.591 181.779 107.636 181.779 107.726C181.779 107.816 181.757 107.861 181.712 107.861C181.2 107.861 180.861 107.959 180.696 108.155C180.545 108.336 180.47 108.757 180.47 109.419V114.431L179.544 115.063L185.978 107.523C186.024 107.448 186.121 107.41 186.272 107.41C186.498 107.41 186.61 107.448 186.61 107.523V114.476C186.61 115.123 186.686 115.545 186.836 115.74C186.987 115.936 187.318 116.034 187.83 116.034C187.86 116.034 187.875 116.079 187.875 116.169C187.875 116.26 187.86 116.305 187.83 116.305C187.498 116.305 187.137 116.297 186.746 116.282C186.37 116.267 185.978 116.26 185.572 116.26C185.151 116.26 184.737 116.267 184.33 116.282C183.924 116.297 183.563 116.305 183.247 116.305C183.217 116.305 183.202 116.26 183.202 116.169C183.202 116.079 183.217 116.034 183.247 116.034C183.774 116.034 184.112 115.936 184.263 115.74C184.413 115.545 184.488 115.123 184.488 114.476V109.329L185.549 108.719L179.003 116.395C178.988 116.425 178.95 116.448 178.89 116.463C178.845 116.478 178.784 116.485 178.709 116.485Z" fill="white"/>
<path d="M5.14328 79.1665C3.09117 81.1549 0.0830078 84.4516 0.0830078 84.4516C0.0830078 84.4516 3.85988 81.0622 6.49269 79.1665C8.529 77.7002 9.78929 77.0524 11.8903 75.6805C15.8676 73.0834 18.0151 71.502 22.0109 68.9335C25.7935 66.502 27.8733 65.0629 31.7941 62.8611C35.6984 60.6686 37.9861 59.6175 42.0271 57.6884L42.2885 57.5636C45.479 56.0403 47.3489 55.1475 50.6858 53.7526C54.8399 52.0161 57.1971 51.0902 61.481 49.7044C69.1633 47.2193 73.7361 46.7704 81.6097 44.9815C87.7501 43.5863 91.1244 42.4227 97.3527 41.4955C103.149 40.6326 106.463 40.671 112.309 40.2586C118.364 39.8314 121.763 39.6442 127.827 39.359C140.508 38.7624 160.325 38.5718 160.325 38.5718C160.325 38.5718 168.691 38.7904 174.044 38.5718C177.827 38.4173 183.715 37.8971 183.715 37.8971C183.715 37.8971 192.378 37.1506 197.884 36.3228L198.274 36.264C204.719 35.2953 208.479 34.73 214.864 32.9493C219.826 31.565 222.468 30.3347 227.346 28.6762C230.067 27.7508 231.634 27.2629 234.205 25.9773C236.112 25.0239 237.083 24.4397 238.703 23.0536C241.059 21.0378 243.763 17.0938 243.763 17.0938L242.864 17.8809C242.864 17.8809 238.651 21.1767 235.667 22.8287C232.413 24.6303 226.896 26.5396 226.896 26.5396C226.896 26.5396 219.608 28.8344 214.864 30.0256C208.306 31.6716 204.578 32.4517 197.884 33.3991C192.38 34.178 183.715 34.7485 183.715 34.7485C183.715 34.7485 177.829 35.3554 174.044 35.5356C168.692 35.7904 160.325 35.5356 160.325 35.5356C160.325 35.5356 140.512 35.5556 127.827 35.9854C121.764 36.1909 118.356 36.1849 112.309 36.6601C106.449 37.1206 103.161 37.4484 97.3527 38.3469C91.1566 39.3054 87.727 40.1212 81.6097 41.4955C73.6909 43.2746 69.2277 44.2473 61.481 46.6682C57.226 47.998 54.8108 48.6887 50.6858 50.3791C47.2318 51.7945 45.3797 52.7862 42.0271 54.4273C37.9873 56.4048 35.697 57.4771 31.7941 59.7125C27.8718 61.959 25.758 63.3696 22.0109 65.8973C17.9691 68.6237 15.6737 70.1317 11.8903 73.2066C9.16209 75.4239 7.66805 76.72 5.14328 79.1665Z" fill="white" stroke="white" stroke-width="0.224901"/>
<path d="M150.317 50.1511C146.936 49.9743 141.658 49.7013 141.658 49.7013C141.658 49.7013 146.923 50.6088 150.317 51.0507C153.645 51.4841 155.518 51.6814 158.863 51.9503C161.889 52.1935 163.589 52.3048 166.622 52.4001C170.221 52.5133 172.242 52.625 175.843 52.625C180.63 52.625 183.32 52.6519 188.1 52.4001C191.844 52.2029 193.946 52.025 197.659 51.5005C199.252 51.2754 200.157 51.1169 201.712 50.8445L201.819 50.8258C204.508 50.3549 206.015 50.075 208.679 49.4764C210.487 49.0701 211.516 48.8902 213.289 48.3519C216.81 47.2835 218.709 46.3856 221.948 44.6411C224.415 43.3122 225.755 42.4676 228.02 40.8177C230.338 39.1295 231.693 38.1973 233.643 36.0948C234.79 34.8578 235.318 34.0627 236.342 32.7213C237.908 30.6675 238.915 29.5844 240.165 27.3237C241.164 25.5169 242.301 22.4883 242.301 22.4883L243.763 17.2031L239.265 22.4883C239.265 22.4883 238.554 24.9005 237.803 26.3116C236.601 28.5701 235.587 29.9271 233.868 31.8217C231.802 34.0984 230.373 35.3524 228.02 37.3318C225.466 39.4814 223.959 40.1951 221.048 41.8298C218.012 43.5351 216.575 44.4994 213.289 45.6531C208.757 47.2444 205.75 47.785 201.032 48.6893C195.688 49.7136 192.512 50.156 187.088 50.6009C182.706 50.9605 180.239 50.7269 175.843 50.8258C172.243 50.9068 170.223 50.8258 166.622 50.8258C163.592 50.8258 161.892 50.6767 158.863 50.6009C155.522 50.5174 153.654 50.3257 150.317 50.1511Z" fill="white" stroke="white" stroke-width="0.224901"/>
<path d="M202.269 52.1776C200.467 52.0224 197.659 51.7278 197.659 51.7278L197.096 50.041L189.787 51.7278C189.787 51.7278 195.06 52.9087 197.659 53.3021C198.887 53.488 199.573 53.6115 200.807 53.7519C202.688 53.9659 205.643 54.0892 205.643 54.0892L208.679 52.6274C208.679 52.6274 204.769 52.3928 202.269 52.1776Z" fill="white" stroke="white" stroke-width="0.224901"/>
<rect x="144.374" y="11.2734" width="36.9791" height="1.40873" rx="0.704365" fill="white"/>
<rect x="75.8745" y="11.2734" width="36.9791" height="1.40873" rx="0.704365" fill="white"/>
<path d="M130.608 17.0215C130.85 17.2936 130.991 17.615 130.991 17.9609C130.991 18.2473 130.893 18.5168 130.724 18.7559H130.727L128.525 23.9502L126.324 18.7559H126.328C126.158 18.5169 126.061 18.2473 126.061 17.9609C126.061 17.6205 126.197 17.3036 126.432 17.0342L128.35 12.5039L130.608 17.0215ZM122.597 9.4043C122.933 9.40832 123.245 9.54583 123.51 9.77832L128.028 11.7598L123.457 13.9844C123.188 14.2091 122.874 14.3379 122.538 14.334C122.253 14.3305 121.985 14.2303 121.749 14.0586V14.0615L116.581 11.7988L121.802 9.66016V9.66113C122.042 9.49516 122.311 9.40099 122.597 9.4043ZM135.275 9.4043C135.611 9.40835 135.922 9.54569 136.187 9.77734L140.707 11.7598L136.134 13.9844C135.865 14.2086 135.552 14.3379 135.217 14.334C134.931 14.3305 134.664 14.2302 134.428 14.0586V14.0615L129.259 11.7988L134.48 9.66016V9.66113C134.721 9.49522 134.99 9.40096 135.275 9.4043ZM130.608 4.51758C130.85 4.78983 130.991 5.11186 130.991 5.45801C130.991 5.74422 130.893 6.01306 130.724 6.25195H130.727L128.525 11.4463L126.324 6.25195H126.328C126.158 6.01307 126.061 5.7442 126.061 5.45801C126.061 5.11736 126.197 4.79977 126.432 4.53027L128.35 0L130.608 4.51758Z" fill="white"/>
</svg>
