<svg width="56" height="56" viewBox="0 0 56 56" fill="none" xmlns="http://www.w3.org/2000/svg">
<path fill-rule="evenodd" clip-rule="evenodd" d="M21.9955 10.6356C13.2098 16.2779 8.32899 22.845 7.35299 30.337C5.83358 42.0003 16.2638 47.7091 21.5487 42.5798C26.8336 37.4504 23.6656 30.9398 19.8388 29.1602C16.012 27.3804 13.6718 28.0003 14.08 25.622C14.4883 23.2439 19.9326 16.6501 24.7157 13.5794C25.0331 13.3095 25.1538 12.7859 24.8483 12.3887C24.6472 12.1274 24.253 11.6151 23.6656 10.8516C23.1519 10.1839 22.6598 10.2089 21.9955 10.6356Z" fill="#CAD6DC"/>
<path fill-rule="evenodd" clip-rule="evenodd" d="M45.1253 10.6356C36.3398 16.2779 31.4589 22.845 30.4829 30.337C28.9635 42.0003 39.3937 47.7091 44.6786 42.5798C49.9635 37.4504 46.7955 30.9398 42.9688 29.1602C39.142 27.3804 36.8016 28.0003 37.21 25.622C37.6182 23.2439 43.0626 16.6501 47.8457 13.5794C48.163 13.3095 48.2837 12.7859 47.9781 12.3887C47.7772 12.1274 47.383 11.6151 46.7955 10.8516C46.2819 10.1839 45.7898 10.2089 45.1253 10.6356Z" fill="#CAD6DC"/>
</svg>
